<svg width="17" height="26" viewBox="0 0 17 26" fill="none" xmlns="http://www.w3.org/2000/svg">
<path d="M3.81438 9.50167C2.98563 8.70187 2.98563 7.39964 3.81438 6.59985C4.64313 5.80005 5.9925 5.80005 6.82125 6.59985C7.65 7.39964 7.65 8.70187 6.82125 9.50167C5.98187 10.3117 4.64313 10.3117 3.81438 9.50167ZM2.125 20.3604V11.132H0V20.3604C0 23.1905 2.38 25.4873 5.3125 25.4873H11.6875V23.4366H5.3125C3.54875 23.4366 2.125 22.0625 2.125 20.3604ZM17 24.5337L11.6131 19.335H7.96875V15.5617C9.45625 16.7408 11.7937 17.7765 13.8125 17.7765V15.5617C12.0487 15.5822 9.97688 14.6696 8.85063 13.4699L7.36313 11.8805C7.16125 11.6652 6.90625 11.4909 6.63 11.3679C6.32187 11.2243 5.97125 11.132 5.61 11.132H5.57812C4.26062 11.132 3.1875 12.1676 3.1875 13.4391V19.335C3.1875 21.0372 4.61125 22.4112 6.375 22.4112H11.7619L15.4806 26L17 24.5337Z" fill="#3F5391"/>
</svg>
