<svg width="17" height="17" viewBox="0 0 17 17" fill="none" xmlns="http://www.w3.org/2000/svg">
<path d="M15.067 6.50108C14.8615 6.17524 14.642 5.87066 14.4153 5.58733C14.3535 5.50894 14.2758 5.44451 14.1873 5.39826C14.0988 5.35202 14.0015 5.325 13.9019 5.31898C13.8022 5.31296 13.7024 5.32807 13.609 5.36333C13.5156 5.39859 13.4307 5.4532 13.3599 5.52358L11.2349 7.64858C11.3907 8.11608 11.419 8.65441 11.2774 9.21399C11.1508 9.7092 10.8933 10.1612 10.5319 10.5227C10.1704 10.8841 9.71842 11.1416 9.22321 11.2682C8.66363 11.4098 8.12529 11.3815 7.65779 11.2257L5.91529 12.9682C5.56113 13.3223 5.67446 13.9457 6.14904 14.1298C6.90696 14.4202 7.69321 14.569 8.50071 14.569C9.76154 14.569 10.987 14.2007 12.1061 13.5136C13.2465 12.8052 14.2736 11.764 15.1024 10.4394C15.7753 9.36983 15.7399 7.57066 15.067 6.50108ZM9.93083 7.06916L7.06917 9.93083C6.70792 9.56249 6.47417 9.05249 6.47417 8.49999C6.47417 7.38791 7.38083 6.47416 8.5 6.47416C9.0525 6.47416 9.5625 6.70791 9.93083 7.06916Z" fill="black"/>
<path d="M12.9271 4.0729L10.5258 6.47415C10.2609 6.20684 9.94522 5.9952 9.59732 5.85166C9.24942 5.70812 8.87633 5.63559 8.5 5.63832C6.91333 5.63832 5.63833 6.9204 5.63833 8.49998C5.63833 9.29332 5.95708 10.0087 6.47416 10.5258L4.08 12.9271H4.07291C3.28666 12.2896 2.56416 11.475 1.94791 10.5116C1.23958 9.39957 1.23958 7.59332 1.94791 6.48123C2.76958 5.19207 3.77541 4.17915 4.89458 3.48498C6.01375 2.80498 7.23916 2.42957 8.5 2.42957C10.0796 2.42957 11.6096 3.0104 12.9271 4.0729ZM10.5244 8.49857C10.5244 9.61065 9.61775 10.5244 8.49858 10.5244C8.45608 10.5244 8.42066 10.5244 8.37816 10.5102L10.5102 8.37815C10.5244 8.42065 10.5244 8.45607 10.5244 8.49857Z" fill="black"/>
<path d="M15.4197 1.57887C15.2072 1.36637 14.8601 1.36637 14.6476 1.57887L1.57888 14.6547C1.36638 14.8672 1.36638 15.2143 1.57888 15.4268C1.6293 15.477 1.68922 15.5168 1.75514 15.5436C1.82106 15.5705 1.89167 15.584 1.96286 15.5834C2.03405 15.5827 2.1044 15.5679 2.16981 15.5398C2.23522 15.5117 2.29439 15.4709 2.34388 15.4197L15.4197 2.34387C15.6393 2.13137 15.6393 1.79137 15.4197 1.57887Z" fill="black"/>
</svg>
