<svg width="17" height="17" viewBox="0 0 17 17" fill="none" xmlns="http://www.w3.org/2000/svg">
<g clip-path="url(#clip0_3_46)">
<path d="M15.0521 6.48123C13.4158 3.90998 11.0217 2.42957 8.5 2.42957C7.23916 2.42957 6.01375 2.7979 4.89458 3.48498C3.77541 4.17915 2.76958 5.19206 1.94791 6.48123C1.23958 7.59331 1.23958 9.39957 1.94791 10.5116C3.58416 13.09 5.97833 14.5633 8.5 14.5633C9.76083 14.5633 10.9862 14.195 12.1054 13.5079C13.2246 12.8137 14.2304 11.8008 15.0521 10.5116C15.7604 9.40665 15.7604 7.59331 15.0521 6.48123ZM8.5 11.3616C6.91333 11.3616 5.63833 10.0796 5.63833 8.49998C5.63833 6.9204 6.91333 5.63832 8.5 5.63832C10.0867 5.63832 11.3617 6.9204 11.3617 8.49998C11.3617 10.0796 10.0867 11.3616 8.5 11.3616Z" fill="black"/>
<path d="M8.49858 6.47418C7.96223 6.47418 7.44786 6.68724 7.0686 7.0665C6.68935 7.44575 6.47629 7.96013 6.47629 8.49647C6.47629 9.03282 6.68935 9.5472 7.0686 9.92645C7.44786 10.3057 7.96223 10.5188 8.49858 10.5188C9.61066 10.5188 10.5244 9.6121 10.5244 8.50002C10.5244 7.38793 9.61066 6.47418 8.49858 6.47418Z" fill="black"/>
</g>
<defs>
<clipPath id="clip0_3_46">
<rect width="17" height="17" fill="white"/>
</clipPath>
</defs>
</svg>
