<svg width="17" height="17" viewBox="0 0 17 17" fill="none" xmlns="http://www.w3.org/2000/svg">
<g clip-path="url(#clip0_3_422)">
<path d="M6.02084 11.3333C6.60765 11.3333 7.08334 10.8576 7.08334 10.2708C7.08334 9.68403 6.60765 9.20834 6.02084 9.20834C5.43404 9.20834 4.95834 9.68403 4.95834 10.2708C4.95834 10.8576 5.43404 11.3333 6.02084 11.3333Z" fill="#D9D9EB"/>
<path d="M10.9792 11.3333C11.566 11.3333 12.0417 10.8576 12.0417 10.2708C12.0417 9.68403 11.566 9.20834 10.9792 9.20834C10.3924 9.20834 9.91666 9.68403 9.91666 10.2708C9.91666 10.8576 10.3924 11.3333 10.9792 11.3333Z" fill="#D9D9EB"/>
<path d="M8.50001 1.41666C5.66668 1.41666 2.83334 1.77083 2.83334 4.25V10.9792C2.83334 12.3462 3.94543 13.4583 5.31251 13.4583L4.25001 14.5208V14.875H5.66668L7.08334 13.4583H9.91668L11.3333 14.875H12.75V14.5208L11.6875 13.4583C13.0546 13.4583 14.1667 12.3462 14.1667 10.9792V4.25C14.1667 1.77083 11.3333 1.41666 8.50001 1.41666ZM8.50001 2.83333C10.9863 2.83333 12.0133 3.17333 12.4454 3.54166H4.55459C4.98668 3.17333 6.01376 2.83333 8.50001 2.83333ZM4.25001 4.95833H7.79168V7.08333H4.25001V4.95833ZM12.75 10.9792C12.75 11.5671 12.2754 12.0417 11.6875 12.0417H5.31251C4.72459 12.0417 4.25001 11.5671 4.25001 10.9792V8.5H12.75V10.9792ZM12.75 7.08333H9.20834V4.95833H12.75V7.08333Z" fill="#D9D9EB"/>
</g>
<defs>
<clipPath id="clip0_3_422">
<rect width="17" height="17" fill="white"/>
</clipPath>
</defs>
</svg>
